<?xml version="1.0" encoding="UTF-8"?>
<svg xmlns="http://www.w3.org/2000/svg" xmlns:xlink="http://www.w3.org/1999/xlink" width="1024px" height="1024px" viewBox="0 0 1024 1024" version="1.1">
<g id="surface1">
<path style=" stroke:none;fill-rule:nonzero;fill:rgb(86.27451%,86.27451%,87.058824%);fill-opacity:1;" d="M 409.375 248.175781 C 411.039062 254.757812 412.371094 261.324219 413.367188 267.878906 C 416.132812 285.738281 405.09375 303.351562 391.597656 313.324219 C 391.179688 313.625 390.636719 313.683594 390.164062 313.476562 C 389.695312 313.269531 389.367188 312.832031 389.304688 312.320312 C 388.144531 302.433594 390.773438 292.289062 397.1875 281.886719 C 398.324219 280.03125 397.898438 279.546875 395.917969 280.433594 C 381.171875 286.984375 369.171875 303.289062 360.242188 318.074219 C 359.929688 318.605469 359.472656 318.941406 358.871094 319.078125 C 354.855469 320.007812 352.417969 318.292969 351.558594 313.9375 C 349.265625 302.484375 347.675781 290.734375 346.789062 278.691406 C 345.886719 266.472656 345.742188 255.289062 346.359375 245.144531 C 348.253906 214.085938 355.691406 183.125 368.660156 152.269531 C 374.21875 139.011719 380.875 127.605469 388.628906 118.046875 C 420.042969 79.320312 467.3125 59.945312 515.828125 53.410156 C 534.617188 50.886719 554.304688 49.191406 574.894531 48.332031 C 589.539062 47.71875 599.039062 46.675781 610.652344 50.566406 C 614.242188 51.753906 614.882812 53.84375 612.578125 56.832031 C 607.640625 63.222656 604.917969 70.101562 604.097656 78.398438 C 602.40625 95.667969 597.4375 113.097656 589.1875 130.683594 C 589.054688 130.953125 588.796875 131.144531 588.496094 131.183594 C 588.199219 131.226562 587.90625 131.113281 587.714844 130.886719 C 587.265625 130.367188 587.105469 129.78125 587.242188 129.125 C 590.207031 114.039062 592.984375 97.449219 595.578125 79.359375 C 596.207031 75.003906 595.230469 74.609375 592.648438 78.171875 C 590.957031 80.519531 589.210938 82.625 587.40625 84.480469 C 576.203125 95.988281 566.128906 106.023438 559.984375 120.175781 C 555.886719 129.597656 552.1875 138.765625 548.882812 147.679688 C 548.367188 149.074219 548.121094 149.027344 548.148438 147.539062 C 548.3125 138.347656 547.636719 129.085938 546.121094 119.746094 C 546.085938 119.511719 545.921875 119.316406 545.699219 119.238281 C 545.476562 119.160156 545.226562 119.214844 545.054688 119.378906 C 541.101562 122.960938 537.089844 125.972656 533.789062 130.253906 C 514.988281 154.683594 504.464844 186.859375 497.542969 215.898438 C 497.398438 216.457031 496.871094 216.816406 496.3125 216.738281 L 495.78125 216.65625 C 495.671875 216.628906 495.621094 216.5625 495.636719 216.453125 C 496.058594 207.441406 495.5 198.820312 493.957031 190.585938 C 493.535156 188.308594 492.625 186.347656 491.234375 184.710938 C 490.300781 183.617188 488.867188 183.085938 487.449219 183.304688 C 486.027344 183.527344 484.824219 184.46875 484.269531 185.792969 C 477.082031 202.914062 466.492188 217.578125 455.761719 233.125 C 446.851562 246.046875 440.320312 260.628906 440.871094 276.171875 C 440.898438 277.277344 440.511719 278.214844 439.707031 278.980469 L 435.546875 282.847656 C 434.730469 283.601562 434.332031 283.421875 434.359375 282.316406 C 434.75 267.285156 422.316406 255.203125 410.398438 247.4375 C 409.429688 246.8125 409.089844 247.058594 409.375 248.175781 Z M 409.375 248.175781 "/>
<path style=" stroke:none;fill-rule:nonzero;fill:rgb(86.27451%,86.27451%,87.058824%);fill-opacity:1;" d="M 697.609375 672.625 C 697.570312 672.269531 697.441406 671.941406 697.222656 671.640625 C 679.511719 647.964844 665.011719 626.386719 653.722656 606.90625 C 649.421875 599.492188 645.960938 591.542969 644.792969 582.820312 C 643.425781 572.675781 643.316406 562.953125 644.464844 553.65625 C 644.558594 552.808594 644.949219 552.640625 645.632812 553.144531 C 666.890625 568.84375 688.648438 584.363281 710.902344 599.695312 C 722.480469 607.683594 734.78125 616.769531 747.808594 626.953125 C 767.34375 642.230469 786.160156 659.722656 804.25 679.425781 C 824.421875 701.398438 840.027344 728.761719 851.230469 755.835938 C 854.003906 762.511719 856.726562 768.949219 859.402344 775.148438 C 870.953125 801.960938 878.695312 831.753906 882.625 864.523438 C 882.804688 865.996094 882.511719 867.347656 881.746094 868.578125 C 881.023438 869.75 880.003906 870.125 878.695312 869.703125 C 858.707031 863.164062 839.324219 858.296875 820.550781 855.101562 C 764.628906 845.585938 709.148438 839.558594 654.109375 837.019531 C 642.492188 836.484375 629.820312 836.335938 616.101562 836.566406 C 533.894531 837.933594 453.34375 839.050781 374.457031 839.925781 C 358.003906 840.101562 344.316406 840.683594 333.394531 841.667969 C 291.472656 845.457031 249.46875 850.945312 209.878906 862.308594 C 202.191406 864.523438 195.003906 867.410156 188.3125 870.972656 C 187.417969 871.453125 186.332031 871.421875 185.464844 870.890625 C 184.597656 870.359375 184.078125 869.410156 184.09375 868.394531 C 184.230469 861.335938 184.933594 854.035156 186.203125 846.5 C 189.289062 828.328125 192.851562 809.777344 196.894531 790.855469 C 202.765625 763.359375 212.28125 736.488281 225.445312 710.246094 C 255.808594 649.789062 296.589844 598.773438 347.792969 557.199219 C 355.054688 551.300781 362.886719 545.175781 371.28125 538.828125 C 376.238281 535.082031 383.304688 530.453125 389.203125 528.527344 C 409.066406 522.054688 427.765625 511.242188 447.160156 502.558594 C 455.761719 498.707031 463.804688 495.566406 471.285156 493.136719 C 479.941406 490.324219 486.460938 487.75 490.84375 485.417969 C 498.011719 481.59375 505.875 476.214844 514.4375 469.277344 C 523.488281 461.925781 529.429688 453.285156 535.921875 444.128906 C 547.636719 427.566406 556.175781 413.007812 561.542969 400.445312 C 571.179688 377.863281 581.789062 357.949219 593.367188 340.707031 C 593.40625 340.636719 593.394531 340.582031 593.324219 340.542969 L 592.917969 340.234375 C 592.574219 340.003906 592.28125 340.042969 592.035156 340.355469 C 590.984375 341.652344 589.980469 342.964844 589.023438 344.289062 C 579.933594 356.878906 570.765625 369.738281 561.519531 382.875 C 558.105469 387.734375 555.125 392.691406 552.570312 397.742188 C 542.578125 417.546875 534.363281 437.351562 517.285156 452.875 C 505.664062 463.441406 494.25 471.851562 483.042969 478.105469 C 478.851562 480.441406 472.363281 482.726562 463.585938 484.964844 C 452.832031 487.710938 441.117188 490.085938 431.738281 494.285156 C 424.285156 497.617188 416.816406 501.863281 409.332031 507.023438 C 401.878906 512.183594 394.050781 514.128906 385.84375 512.859375 C 384.925781 512.714844 384.109375 512.214844 383.570312 511.46875 C 378.503906 504.4375 376.757812 496.597656 378.328125 487.957031 C 378.75 485.621094 378.046875 485.210938 376.21875 486.726562 C 372.796875 489.574219 369.582031 497.253906 367.738281 500.695312 C 366.375 503.207031 365.375 503.070312 364.75 500.285156 C 361.574219 486.441406 364.644531 468.644531 378.144531 460.902344 C 379.382812 460.191406 380.046875 458.777344 379.800781 457.359375 C 378.101562 447.324219 369.910156 440.546875 366.632812 431.1875 C 365.664062 428.414062 364.851562 425.617188 364.195312 422.789062 C 363.539062 419.9375 363.027344 419.960938 362.660156 422.871094 C 361.484375 432.292969 363.035156 441.625 367.308594 450.867188 C 367.609375 451.53125 367.601562 452.292969 367.289062 452.957031 C 366.835938 453.910156 366.195312 454.476562 365.363281 454.65625 C 363.929688 454.957031 362.832031 454.492188 362.066406 453.261719 C 353.773438 440.035156 346.316406 429.609375 348.097656 413.164062 C 351.089844 385.679688 367.453125 367.105469 386.3125 348.261719 C 387.421875 347.171875 388.703125 346.304688 390.164062 345.660156 C 409.332031 337.265625 424.859375 340.828125 443.679688 346.441406 C 458.074219 350.742188 477.246094 352.03125 489.636719 342.222656 C 489.824219 342.078125 489.914062 341.839844 489.867188 341.605469 C 489.816406 341.375 489.640625 341.191406 489.410156 341.136719 C 473.355469 336.589844 462.808594 327.804688 450.601562 317.214844 C 449.578125 316.328125 449.746094 315.902344 451.113281 315.945312 C 464.875 316.335938 478.660156 316.765625 492.339844 314.328125 C 503.316406 312.359375 515.808594 307.179688 527.132812 303.1875 C 529.8125 302.242188 529.804688 301.308594 527.113281 300.378906 C 521.03125 298.3125 515.378906 296.203125 508.886719 295.484375 C 501.226562 294.625 488.078125 292.84375 482.097656 287.949219 C 481.15625 287.183594 481.292969 286.726562 482.507812 286.578125 C 494.195312 285.183594 505.414062 283.328125 516.15625 281.007812 C 532.910156 277.382812 543.230469 268.59375 554.351562 254.914062 C 554.859375 254.285156 554.707031 253.964844 553.902344 253.953125 C 546.503906 253.707031 539.054688 253.207031 531.558594 252.457031 C 526.335938 251.925781 521.09375 252.90625 515.789062 252.539062 C 514.546875 252.457031 514.484375 252.15625 515.605469 251.636719 C 526.0625 246.707031 538.089844 242.367188 551.691406 238.613281 C 567.070312 234.351562 588.429688 224.277344 592.363281 207.074219 C 592.457031 206.6875 592.339844 206.277344 592.054688 206 C 591.765625 205.722656 591.355469 205.617188 590.972656 205.722656 C 576.71875 209.640625 563.007812 211.421875 549.847656 211.066406 C 547.527344 211 547.417969 210.472656 549.519531 209.488281 C 562.886719 203.25 576.128906 196.226562 589.25 188.414062 C 599.257812 182.464844 609.757812 172.542969 620.75 158.660156 C 622.769531 156.105469 624.867188 154.414062 627.035156 153.578125 C 629.820312 152.527344 632.660156 151.566406 635.554688 150.691406 C 639.488281 149.503906 639.460938 148.40625 635.472656 147.394531 L 622.324219 144.097656 C 621.519531 143.890625 621.511719 143.652344 622.304688 143.378906 C 632.367188 139.925781 643.296875 135.269531 655.09375 129.414062 C 665.292969 124.347656 673.148438 117.480469 678.667969 108.808594 C 679.117188 108.101562 679.320312 107.34375 679.28125 106.535156 C 679.246094 106 678.796875 105.582031 678.257812 105.59375 C 671.253906 105.757812 664.726562 106.835938 658.679688 108.832031 C 657.761719 109.132812 657.304688 108.804688 657.304688 107.847656 C 657.304688 107.054688 657.597656 106.433594 658.1875 105.984375 C 661.914062 103.097656 666.707031 102.195312 670.453125 99.164062 C 675.042969 95.449219 678.296875 90.335938 680.222656 83.824219 C 685.382812 66.457031 705.148438 67.808594 715.285156 78.746094 C 719.1875 82.949219 721.714844 88.351562 722.863281 94.945312 C 723.070312 96.121094 723.8125 97.128906 724.867188 97.667969 C 726.957031 98.746094 729.066406 99.730469 731.199219 100.617188 C 741.355469 104.878906 743.238281 113.519531 744.304688 123.332031 C 744.398438 124.3125 744.863281 125.078125 745.699219 125.625 C 758.660156 134.144531 764.292969 147.332031 760.503906 162.570312 C 759.535156 166.503906 758.410156 170.476562 757.125 174.488281 C 756.769531 175.582031 756.8125 176.652344 757.246094 177.703125 C 761.738281 188.695312 758.714844 198.910156 748.175781 208.34375 C 747.757812 208.710938 747.609375 209.296875 747.808594 209.816406 C 750.25 216.683594 751.261719 222.179688 750.835938 226.304688 C 749.9375 235.132812 747.785156 243.078125 750.960938 252.046875 C 752.136719 255.351562 753.171875 258.636719 754.074219 261.898438 C 759.820312 282.734375 767.195312 304.539062 776.191406 327.3125 C 779.980469 336.917969 782.273438 356.679688 766.175781 355.285156 C 762.101562 354.9375 755.078125 353.996094 751.082031 355.429688 C 750.441406 355.660156 749.945312 356.179688 749.738281 356.832031 C 749.535156 357.488281 749.644531 358.203125 750.039062 358.769531 C 752.722656 362.617188 758.394531 366.488281 757.863281 371.464844 C 757.125 378.65625 753.273438 386.007812 745.347656 386.476562 C 744.269531 386.546875 744.058594 387.011719 744.714844 387.871094 C 748.296875 392.5 750.632812 398.890625 746.210938 403.84375 C 742.339844 408.144531 736.480469 406.980469 732.324219 410.929688 C 731.996094 411.242188 731.824219 411.683594 731.851562 412.128906 C 731.878906 412.578125 732.105469 412.984375 732.46875 413.246094 C 736.480469 416.207031 739.015625 419.988281 740.066406 424.589844 C 745.699219 449.472656 737.976562 466.433594 712.992188 473.640625 C 689.972656 480.296875 667.6875 481.238281 645.734375 473.496094 C 635.070312 469.730469 624.441406 465.921875 613.847656 462.070312 C 605.511719 459.039062 597.871094 454.859375 590.4375 450.582031 C 586 448.027344 584.914062 449.042969 587.183594 453.632812 C 587.5625 454.410156 588.855469 455.886719 591.054688 458.054688 C 601.074219 467.925781 613.074219 474.773438 627.054688 478.597656 C 634.074219 480.507812 641.671875 481.695312 649.851562 482.160156 C 650.628906 482.214844 650.992188 482.625 650.9375 483.390625 C 650.582031 488.25 649.761719 492.980469 648.480469 497.582031 C 643.835938 514.128906 639.617188 530.535156 635.820312 546.796875 C 631.070312 567.171875 634.820312 587.46875 641.90625 608.398438 C 644.921875 617.328125 649.941406 626.246094 656.957031 635.144531 C 668.820312 650.179688 682.085938 662.835938 696.75 673.117188 C 697.417969 673.59375 697.707031 673.429688 697.609375 672.625 Z M 745.371094 190.199219 C 748.441406 170.988281 742.460938 154.605469 729.886719 140.902344 C 727.304688 138.089844 726.261719 138.574219 726.753906 142.355469 C 727.058594 144.835938 729.457031 148.910156 730.195312 151.816406 C 733.308594 164.230469 736.351562 176.761719 739.328125 189.417969 C 740.066406 192.53125 741.246094 195.496094 742.871094 198.308594 C 743.402344 199.25 743.773438 199.1875 743.976562 198.125 C 744.480469 195.558594 744.945312 192.914062 745.371094 190.199219 Z M 710.757812 178.625 C 713.441406 172.726562 713.75 166.5625 714.832031 160.296875 C 715.09375 158.808594 714.914062 158.753906 714.300781 160.132812 C 712.363281 164.570312 709.882812 168.265625 706.867188 171.210938 C 702.851562 175.144531 701.828125 179.8125 699.472656 184.648438 C 693.144531 197.550781 684.214844 202.199219 672.359375 208.773438 C 668.875 210.699219 665.386719 213.761719 661.894531 217.96875 C 653.347656 228.234375 646.398438 238.585938 641.042969 249.015625 C 639.335938 252.347656 639.742188 252.632812 642.253906 249.875 C 648.492188 243.050781 654.726562 235.914062 660.949219 228.476562 C 665.878906 222.589844 670.363281 218.71875 674.40625 216.863281 C 687.390625 210.882812 699.535156 203.386719 705.3125 190.628906 C 707.070312 186.75 708.886719 182.75 710.757812 178.625 Z M 217.167969 799.90625 C 214.691406 810.414062 214.382812 822.355469 215.285156 832.878906 C 215.667969 837.222656 217.21875 840.921875 219.933594 843.980469 C 220.382812 844.484375 221.066406 844.707031 221.722656 844.558594 C 222.382812 844.40625 222.90625 843.914062 223.089844 843.265625 C 225.117188 836.015625 225.566406 828.578125 228.066406 821.515625 C 240.84375 785.285156 257.636719 751.308594 274.757812 716.675781 C 292.632812 680.550781 313.734375 643.257812 338.0625 604.792969 C 343.511719 596.179688 348.386719 587.441406 352.6875 578.582031 C 353.3125 577.296875 353.019531 577.042969 351.804688 577.824219 C 346.371094 581.316406 340.921875 585.558594 335.460938 590.539062 C 320.046875 604.605469 305.382812 620.148438 291.472656 637.171875 C 269.476562 664.144531 253.296875 694.148438 240.925781 726.507812 C 237.539062 735.382812 233.886719 745.070312 229.96875 755.570312 C 224.523438 770.152344 220.671875 785.039062 217.167969 799.90625 Z M 385.742188 649.03125 C 406.765625 654.671875 426.84375 659.476562 445.972656 663.449219 C 477.648438 670.042969 514.800781 679.703125 557.425781 692.429688 C 571.0625 696.496094 584.144531 701.660156 596.664062 707.910156 C 609.71875 714.410156 621.355469 720.5625 631.582031 726.363281 C 650.164062 736.863281 668.144531 748.859375 685.527344 762.347656 C 697.242188 771.460938 707.953125 782.007812 718.949219 792.574219 C 725.894531 799.230469 733.550781 804.824219 740.964844 810.742188 C 742.371094 811.875 743.859375 812.085938 745.429688 811.375 C 749.144531 809.699219 750.394531 806.679688 749.179688 802.324219 C 745.996094 790.855469 743.328125 779.796875 741.171875 769.148438 C 738.015625 753.601562 740.105469 737.117188 741.089844 721.058594 C 741.539062 713.6875 737.464844 708.21875 731.832031 703.960938 C 722.945312 697.242188 714.757812 691.617188 707.277344 687.082031 C 706.785156 686.789062 706.160156 686.820312 705.699219 687.164062 L 705.269531 687.492188 C 705.136719 687.597656 705.058594 687.753906 705.058594 687.921875 C 705.058594 688.085938 705.136719 688.238281 705.269531 688.332031 C 712.253906 693.597656 740.71875 713.851562 735.601562 723.703125 C 733.472656 727.777344 725.976562 726.464844 722.472656 725.421875 C 708.320312 721.203125 694.578125 714.691406 679.894531 710.71875 C 661.21875 705.679688 643.050781 697.710938 623.738281 692.222656 C 555.132812 672.746094 485.273438 655.402344 415.96875 646.984375 C 402.683594 645.371094 387.480469 644.585938 370.359375 644.628906 C 370.210938 644.628906 370.128906 644.695312 370.113281 644.832031 L 370.054688 645.53125 C 370.011719 645.871094 370.164062 646.0625 370.503906 646.101562 C 375.734375 646.746094 380.8125 647.722656 385.742188 649.03125 Z M 840.621094 817.867188 C 838.71875 779.265625 814.960938 739.554688 788.253906 708.484375 C 779.804688 698.65625 770.191406 690.925781 759.417969 685.300781 C 758.75 684.960938 758.402344 685.160156 758.375 685.894531 C 758.359375 686.402344 758.492188 686.84375 758.761719 687.226562 C 784.242188 723.804688 808.570312 760.382812 822.496094 801.792969 C 826.960938 815.0625 830.035156 829.152344 833.25 842.996094 C 833.304688 843.230469 833.496094 843.410156 833.726562 843.445312 C 833.960938 843.484375 834.1875 843.367188 834.292969 843.160156 C 838.921875 834.765625 841.03125 826.332031 840.621094 817.867188 Z M 840.621094 817.867188 "/>
</g>
</svg>
