<?xml version="1.0" encoding="UTF-8" standalone="no"?>
<!DOCTYPE svg PUBLIC "-//W3C//DTD SVG 1.1//EN" "http://www.w3.org/Graphics/SVG/1.1/DTD/svg11.dtd">
<svg xmlns="http://www.w3.org/2000/svg" version="1.1" viewBox="0.00 0.00 500.00 500.00">
<path fill="#dcdcde" d="
  M 199.89 121.18
  Q 201.11 126.00 201.84 130.80
  C 203.19 139.52 197.80 148.12 191.21 152.99
  A 0.71 0.71 0.0 0 1 190.09 152.50
  Q 189.24 145.26 193.94 137.64
  Q 194.77 136.28 193.32 136.93
  C 186.12 140.13 180.26 148.09 175.90 155.31
  Q 175.67 155.70 175.23 155.80
  Q 172.29 156.48 171.66 153.29
  Q 169.98 144.90 169.33 136.08
  Q 168.67 127.13 169.12 119.70
  Q 170.51 96.95 180.01 74.35
  Q 184.08 64.64 189.76 57.64
  C 205.10 38.73 228.18 29.27 251.87 26.08
  Q 265.63 24.23 280.71 23.60
  C 287.86 23.30 292.50 22.79 298.17 24.69
  Q 300.80 25.56 299.11 27.75
  C 296.70 30.87 295.37 34.23 294.97 38.28
  Q 293.73 50.93 287.69 63.81
  A 0.44 0.43 -52.5 0 1 286.97 63.91
  Q 286.64 63.53 286.74 63.05
  Q 288.91 52.00 290.81 38.75
  Q 291.27 35.56 289.38 38.17
  Q 288.14 39.89 286.82 41.25
  C 281.35 46.87 276.43 51.77 273.43 58.68
  Q 270.43 65.58 268.01 72.11
  Q 267.63 73.13 267.65 72.04
  Q 267.77 65.31 266.66 58.47
  A 0.31 0.31 0.0 0 0 266.14 58.29
  C 264.21 60.04 262.25 61.51 260.64 63.60
  C 251.46 75.53 246.32 91.24 242.94 105.42
  A 0.55 0.54 -78.8 0 1 242.34 105.83
  L 242.08 105.79
  Q 242.00 105.77 242.01 105.69
  Q 242.32 99.09 241.19 93.06
  Q 240.88 91.39 239.86 90.19
  A 2.02 2.02 0.0 0 0 236.46 90.72
  C 232.95 99.08 227.78 106.24 222.54 113.83
  C 218.19 120.14 215.00 127.26 215.27 134.85
  Q 215.29 135.66 214.70 136.22
  L 212.67 138.11
  Q 212.07 138.66 212.09 137.85
  C 212.28 130.51 206.21 124.61 200.39 120.82
  Q 199.68 120.36 199.89 121.18
  Z"
/>
<path fill="#dcdcde" d="
  M 340.63 328.43
  Q 340.60 328.17 340.44 327.95
  Q 327.47 310.61 319.20 296.34
  C 317.10 292.72 315.41 288.84 314.84 284.58
  Q 313.84 277.15 314.68 270.34
  Q 314.75 269.72 315.25 270.09
  Q 330.82 281.59 347.12 292.82
  Q 355.60 298.67 365.14 306.13
  Q 379.45 317.32 392.70 331.75
  C 402.55 342.48 410.17 355.84 415.64 369.06
  Q 417.67 373.95 419.63 378.49
  Q 428.09 398.13 430.97 422.13
  Q 431.10 423.21 430.54 424.11
  Q 430.01 424.97 429.05 424.66
  Q 414.41 419.87 400.66 417.53
  Q 359.70 410.56 319.39 408.70
  Q 310.88 408.31 300.83 408.48
  Q 240.62 409.48 182.84 410.12
  Q 170.79 410.25 162.79 410.97
  C 142.32 412.82 121.81 415.50 102.48 421.05
  Q 96.85 422.67 91.95 425.28
  A 1.40 1.40 0.0 0 1 89.89 424.02
  Q 89.99 418.85 90.92 413.33
  Q 93.18 400.02 96.14 386.16
  Q 100.44 366.02 110.08 346.80
  Q 132.32 302.52 169.82 272.07
  Q 175.14 267.75 181.29 263.10
  C 183.71 261.27 187.16 259.01 190.04 258.07
  C 199.74 254.91 208.87 249.63 218.34 245.39
  Q 224.64 242.57 230.12 240.79
  Q 236.46 238.73 239.67 237.02
  Q 244.92 234.22 251.19 229.14
  C 255.61 225.55 258.51 221.33 261.68 216.86
  Q 270.26 204.73 274.19 195.53
  Q 281.25 178.99 289.73 166.36
  Q 289.76 166.31 289.71 166.28
  L 289.51 166.13
  Q 289.26 165.96 289.08 166.19
  Q 288.31 167.14 287.61 168.11
  Q 280.95 177.33 274.18 186.95
  Q 271.68 190.51 269.81 194.21
  C 264.93 203.88 260.92 213.55 252.58 221.13
  Q 244.07 228.87 235.86 233.45
  Q 232.79 235.16 226.36 236.80
  C 221.11 238.14 215.39 239.30 210.81 241.35
  Q 205.35 243.79 199.87 247.57
  Q 194.41 251.35 188.40 250.42
  A 1.70 1.68 -13.1 0 1 187.29 249.74
  Q 183.58 244.59 184.73 238.26
  Q 185.04 236.55 183.70 237.66
  C 182.03 239.05 180.46 242.80 179.56 244.48
  Q 178.56 246.32 178.10 244.28
  C 176.55 237.52 178.05 228.83 184.64 225.05
  A 1.67 1.66 70.2 0 0 185.45 223.32
  C 184.62 218.42 180.62 215.11 179.02 210.54
  Q 178.31 208.51 177.83 206.44
  Q 177.35 204.35 177.08 206.48
  Q 176.22 213.38 179.35 220.15
  A 1.22 1.21 -44.7 0 1 179.34 221.17
  Q 179.01 221.87 178.40 222.00
  Q 177.35 222.22 176.79 221.32
  C 172.74 214.86 169.10 209.77 169.97 201.74
  C 171.43 188.32 179.42 179.25 188.63 170.05
  Q 189.44 169.25 190.51 168.78
  C 199.87 164.68 207.45 166.42 216.64 169.16
  C 223.67 171.26 233.03 171.89 239.08 167.10
  A 0.30 0.30 0.0 0 0 238.97 166.57
  C 231.13 164.35 225.98 160.06 220.02 154.89
  Q 219.27 154.24 220.27 154.27
  C 226.99 154.46 233.72 154.67 240.40 153.48
  C 245.76 152.52 251.86 149.99 257.39 148.04
  Q 259.35 147.35 257.38 146.67
  C 254.41 145.66 251.65 144.63 248.48 144.28
  C 244.74 143.86 238.32 142.99 235.40 140.60
  Q 234.71 140.04 235.60 139.93
  Q 244.16 138.91 252.03 137.21
  C 260.21 135.44 265.25 131.15 270.68 124.47
  Q 271.05 124.01 270.46 124.00
  Q 265.04 123.82 259.55 123.27
  C 257.00 123.01 254.44 123.49 251.85 123.31
  Q 250.94 123.25 251.76 122.87
  Q 259.42 119.26 269.38 116.51
  C 276.89 114.43 287.32 109.51 289.24 101.11
  A 0.55 0.55 0.0 0 0 288.56 100.45
  Q 278.12 103.32 268.48 103.06
  Q 266.78 103.01 268.32 102.29
  Q 278.11 97.72 287.72 92.00
  Q 295.05 87.64 303.10 77.47
  Q 304.58 75.60 306.17 74.99
  Q 308.21 74.22 310.33 73.58
  Q 313.21 72.71 310.29 71.97
  L 303.87 70.36
  Q 303.28 70.21 303.86 70.01
  Q 311.23 67.48 319.87 63.19
  Q 327.34 59.48 331.38 53.13
  Q 331.71 52.61 331.68 52.02
  A 0.49 0.49 0.0 0 0 331.18 51.56
  Q 326.05 51.68 321.62 53.14
  Q 320.95 53.36 320.95 52.66
  Q 320.95 52.08 321.38 51.75
  C 323.20 50.34 325.54 49.90 327.37 48.42
  Q 330.73 45.70 332.14 40.93
  C 334.66 32.45 344.31 33.11 349.26 38.45
  Q 352.12 41.53 352.96 46.36
  A 1.86 1.85 -81.5 0 0 353.94 47.69
  Q 355.47 48.48 357.03 49.13
  C 361.99 51.21 362.91 55.43 363.43 60.22
  Q 363.50 60.94 364.11 61.34
  C 370.44 65.50 373.19 71.94 371.34 79.38
  Q 370.63 82.26 369.69 85.20
  Q 369.43 86.00 369.75 86.77
  Q 373.04 94.82 365.32 101.73
  A 0.65 0.65 0.0 0 0 365.14 102.45
  Q 366.93 107.48 366.62 110.50
  C 366.18 114.81 365.13 118.69 366.68 123.07
  Q 367.54 125.49 368.20 127.88
  Q 372.41 143.14 379.00 159.82
  C 380.85 164.51 381.97 174.16 374.11 173.48
  C 372.12 173.31 368.69 172.85 366.74 173.55
  A 1.08 1.07 62.4 0 0 366.23 175.18
  C 367.54 177.06 370.31 178.95 370.05 181.38
  C 369.69 184.89 367.81 188.48 363.94 188.71
  Q 363.15 188.76 363.63 189.39
  C 365.38 191.65 366.52 194.77 364.36 197.19
  C 362.47 199.29 359.61 198.72 357.58 200.65
  A 0.74 0.73 -48.7 0 0 357.65 201.78
  Q 360.59 203.95 361.36 207.32
  C 364.11 219.47 360.34 227.75 348.14 231.27
  C 336.90 234.52 326.02 234.98 315.30 231.20
  Q 307.49 228.44 299.73 225.62
  C 295.66 224.14 291.93 222.10 288.30 220.01
  Q 285.05 218.14 286.71 221.50
  Q 286.99 222.07 288.60 223.66
  Q 295.94 230.89 306.18 233.69
  Q 311.32 235.09 317.31 235.43
  Q 317.88 235.47 317.84 236.03
  Q 317.58 239.59 316.64 242.96
  Q 313.24 255.08 310.46 266.99
  C 308.14 276.94 309.97 286.85 313.43 297.07
  Q 315.64 303.61 320.78 310.13
  Q 329.47 321.14 340.21 328.67
  Q 340.70 329.02 340.63 328.43
  Z
  M 363.95 92.87
  C 365.45 83.49 362.53 75.49 356.39 68.80
  Q 354.50 66.74 354.86 69.51
  C 355.01 70.72 356.18 72.71 356.54 74.13
  Q 358.82 83.22 361.00 92.49
  Q 361.54 94.77 362.73 96.83
  Q 363.12 97.52 363.27 96.74
  Q 363.64 94.86 363.95 92.87
  Z
  M 347.05 87.22
  C 348.36 84.34 348.51 81.33 349.04 78.27
  Q 349.23 77.18 348.78 78.19
  Q 347.36 81.44 345.15 83.60
  C 343.19 85.52 342.69 87.80 341.54 90.16
  C 338.45 96.46 334.09 98.73 328.30 101.94
  Q 325.75 103.35 323.19 106.43
  Q 316.93 113.95 313.01 121.59
  Q 311.76 124.03 313.60 122.01
  Q 318.17 117.01 322.73 111.56
  Q 326.34 107.25 329.30 105.89
  C 335.64 102.97 341.57 99.31 344.39 93.08
  Q 345.68 90.24 347.05 87.22
  Z
  M 106.04 390.58
  C 104.83 395.71 104.68 401.54 105.12 406.68
  Q 105.40 409.86 107.39 412.10
  A 0.90 0.90 0.0 0 0 108.93 411.75
  C 109.92 408.21 110.14 404.58 111.36 401.13
  C 117.60 383.44 125.80 366.85 134.16 349.94
  Q 147.25 323.48 165.07 295.31
  Q 169.06 289.00 172.21 282.51
  Q 172.67 281.57 171.78 282.14
  Q 167.80 284.70 163.80 288.35
  Q 152.51 298.65 142.32 311.12
  C 131.58 324.29 123.68 338.94 117.64 354.74
  Q 115.16 361.24 112.29 368.93
  C 109.63 376.05 107.75 383.32 106.04 390.58
  Z
  M 188.35 316.91
  Q 203.75 321.04 217.76 323.95
  Q 240.96 328.78 272.18 338.10
  Q 282.17 341.08 291.34 345.66
  Q 300.90 350.42 308.39 354.67
  Q 322.00 362.36 334.73 372.24
  C 340.45 376.69 345.68 381.84 351.05 387.00
  C 354.44 390.25 358.18 392.98 361.80 395.87
  Q 362.83 396.70 363.98 396.18
  Q 366.70 394.95 365.81 391.76
  Q 363.48 383.36 361.90 375.56
  C 360.36 367.97 361.38 359.92 361.86 352.08
  C 362.08 348.48 360.09 345.81 357.34 343.73
  Q 350.83 338.81 345.35 335.49
  A 0.69 0.69 0.0 0 0 344.58 335.53
  L 344.37 335.69
  A 0.26 0.25 -45.5 0 0 344.37 336.10
  C 347.78 338.67 361.68 348.56 359.18 353.37
  C 358.14 355.36 354.48 354.72 352.77 354.21
  C 345.86 352.15 339.15 348.97 331.98 347.03
  C 322.86 344.57 313.99 340.68 304.56 338.00
  C 271.06 328.49 236.95 320.02 203.11 315.91
  Q 193.38 314.73 180.84 314.76
  Q 180.73 314.76 180.72 314.86
  L 180.69 315.20
  Q 180.66 315.45 180.91 315.48
  Q 184.74 315.95 188.35 316.91
  Z
  M 410.46 399.35
  C 409.53 380.50 397.93 361.11 384.89 345.94
  Q 378.70 338.74 370.81 334.62
  Q 370.32 334.37 370.30 334.91
  Q 370.29 335.28 370.49 335.56
  C 382.93 353.42 394.81 371.28 401.61 391.50
  C 403.79 397.98 405.29 404.86 406.86 411.62
  A 0.28 0.27 53.1 0 0 407.37 411.70
  Q 410.76 405.55 410.46 399.35
  Z"
/>
</svg>
